<svg data-v-423bf9ae="" xmlns="http://www.w3.org/2000/svg" viewBox="0 0 374.4670364319735 60" class="font"><!----><!----><!----><g data-v-423bf9ae="" id="0e757bbb-f816-4c83-b5d8-71228fc259fe" fill="white" transform="matrix(5.076142263038552,0,0,5.076142263038552,-4.2639613124677,-18.680204105269503)"><path d="M7.01 13.13L3.28 13.13L3.28 4.66L0.84 4.66L0.84 15.33L7.01 15.33ZM10.12 10.02C10.12 9.03 10.42 8.74 11.17 8.74C11.94 8.74 12.24 9.03 12.24 10.02L12.24 12.15C12.24 13.13 11.94 13.43 11.17 13.43C10.42 13.43 10.12 13.13 10.12 12.15ZM11.17 6.66C8.85 6.66 7.76 7.77 7.76 10.05L7.76 12.11C7.76 14.41 8.85 15.50 11.17 15.50C13.51 15.50 14.60 14.41 14.60 12.11L14.60 10.05C14.60 7.77 13.51 6.66 11.17 6.66ZM22.23 13.13L18.49 13.13L18.49 4.66L16.06 4.66L16.06 15.33L22.23 15.33ZM33.32 4.66L26.99 4.66L26.99 15.33L29.43 15.33L29.43 11.30L32.55 11.30L32.55 9.13L29.43 9.13L29.43 6.83L33.32 6.83ZM34.22 6.83L34.22 15.33L36.58 15.33L36.58 10.86C36.58 9.52 37.32 9.11 38.14 9.11C38.36 9.11 38.57 9.14 38.77 9.17L38.77 6.73C38.64 6.72 38.51 6.71 38.37 6.71C37.48 6.71 36.82 7.04 36.40 7.57L36.26 6.83ZM42.18 6.83L39.82 6.83L39.82 15.33L42.18 15.33ZM42.18 3.68L39.82 3.68L39.82 5.84L42.18 5.84ZM48.13 12.66C48.08 13.24 47.82 13.58 46.98 13.58C46.23 13.58 45.89 13.16 45.89 12.28L45.89 11.79L50.37 11.79L50.37 9.95C50.37 7.69 49.25 6.66 47.00 6.66C44.69 6.66 43.57 7.92 43.57 9.94L43.57 12.08C43.57 14.46 44.67 15.50 47.00 15.50C49.25 15.50 50.23 14.49 50.30 12.66ZM45.89 9.86C45.89 8.88 46.23 8.50 47.03 8.50C47.78 8.50 48.15 8.89 48.15 9.80L48.15 10.09L45.89 10.09ZM51.69 6.83L51.69 15.33L54.05 15.33L54.05 9.95C54.05 9.09 54.42 8.74 55.08 8.74C55.80 8.74 56.07 9.10 56.07 10.00L56.07 15.33L58.44 15.33L58.44 9.73C58.44 7.63 57.61 6.66 55.87 6.66C54.92 6.66 54.32 6.90 53.83 7.39L53.73 6.83ZM64.54 15.33L66.63 15.33L66.63 4.52L64.27 4.52L64.27 7.22C63.90 6.87 63.36 6.66 62.62 6.66C61.07 6.66 59.78 7.73 59.78 9.93L59.78 12.11C59.78 14.34 60.75 15.50 62.57 15.50C63.22 15.50 63.95 15.36 64.46 14.85ZM64.26 12.25C64.26 13.12 63.91 13.43 63.20 13.43C62.45 13.43 62.15 13.09 62.15 12.15L62.15 10.02C62.15 9.09 62.52 8.74 63.21 8.74C63.84 8.74 64.26 9.06 64.26 9.95ZM71.58 10.02C70.52 9.87 70.34 9.67 70.34 9.18C70.34 8.75 70.63 8.48 71.25 8.48C71.99 8.48 72.30 8.85 72.30 9.45L74.47 9.45C74.47 7.66 73.46 6.66 71.32 6.66C69.40 6.66 68.05 7.55 68.05 9.28C68.05 11.06 69.12 11.76 71.05 12.00C72.07 12.12 72.27 12.40 72.27 12.91C72.27 13.40 71.93 13.68 71.32 13.68C70.52 13.68 70.17 13.37 70.14 12.68L67.89 12.68C67.89 14.39 68.82 15.50 71.16 15.50C73.25 15.50 74.61 14.56 74.61 12.75C74.61 10.89 73.18 10.23 71.58 10.02Z"></path></g><!----><!----></svg>